<?xml version="1.0" encoding="UTF-8" standalone="no"?>
<!-- Created with Inkscape (http://www.inkscape.org/) -->

<svg
   xmlns:dc="http://purl.org/dc/elements/1.1/"
   xmlns:cc="http://creativecommons.org/ns#"
   xmlns:rdf="http://www.w3.org/1999/02/22-rdf-syntax-ns#"
   xmlns:svg="http://www.w3.org/2000/svg"
   xmlns="http://www.w3.org/2000/svg"
   xmlns:sodipodi="http://sodipodi.sourceforge.net/DTD/sodipodi-0.dtd"
   xmlns:inkscape="http://www.inkscape.org/namespaces/inkscape"
   width="204.63448mm"
   height="208.42111mm"
   viewBox="0 0 725.08279 738.5"
   id="svg2"
   version="1.1"
   inkscape:version="0.91 r13725"
   sodipodi:docname="pedestrian-coder.svg"
   inkscape:export-filename="/home/algot/Documents/runeman.org/clipart/pedestrian-coder.png"
   inkscape:export-xdpi="36.560596"
   inkscape:export-ydpi="36.560596">
  <title
     id="title3557">Veriest Coder</title>
  <defs
     id="defs4" />
  <sodipodi:namedview
     id="base"
     pagecolor="#ffffff"
     bordercolor="#666666"
     borderopacity="1.0"
     inkscape:pageopacity="0.0"
     inkscape:pageshadow="2"
     inkscape:zoom="0.5"
     inkscape:cx="422.35714"
     inkscape:cy="240.5"
     inkscape:document-units="px"
     inkscape:current-layer="layer1"
     showgrid="false"
     fit-margin-top="0"
     fit-margin-left="0"
     fit-margin-right="0"
     fit-margin-bottom="0"
     inkscape:window-width="1366"
     inkscape:window-height="712"
     inkscape:window-x="0"
     inkscape:window-y="0"
     inkscape:window-maximized="1">
    <inkscape:grid
       type="xygrid"
       id="grid3336"
       originx="764.50003"
       originy="-279.5" />
  </sodipodi:namedview>
  <metadata
     id="metadata7">
    <rdf:RDF>
      <cc:Work
         rdf:about="">
        <dc:format>image/svg+xml</dc:format>
        <dc:type
           rdf:resource="http://purl.org/dc/dcmitype/StillImage" />
        <dc:title>Veriest Coder</dc:title>
        <dc:date>2016-03-12</dc:date>
        <dc:creator>
          <cc:Agent>
            <dc:title>Algot Runeman</dc:title>
          </cc:Agent>
        </dc:creator>
        <dc:rights>
          <cc:Agent>
            <dc:title>Algot Runeman</dc:title>
          </cc:Agent>
        </dc:rights>
        <dc:publisher>
          <cc:Agent>
            <dc:title>runeman.org</dc:title>
          </cc:Agent>
        </dc:publisher>
        <dc:identifier>pedestrian-coder.svg</dc:identifier>
        <cc:license
           rdf:resource="http://creativecommons.org/publicdomain/zero/1.0/" />
      </cc:Work>
      <cc:License
         rdf:about="http://creativecommons.org/publicdomain/zero/1.0/">
        <cc:permits
           rdf:resource="http://creativecommons.org/ns#Reproduction" />
        <cc:permits
           rdf:resource="http://creativecommons.org/ns#Distribution" />
        <cc:permits
           rdf:resource="http://creativecommons.org/ns#DerivativeWorks" />
      </cc:License>
    </rdf:RDF>
  </metadata>
  <g
     inkscape:label="Layer 1"
     inkscape:groupmode="layer"
     id="layer1"
     transform="translate(764.5,-34.362183)">
    <path
       style="fill:#554400;fill-rule:evenodd;stroke:#000000;stroke-width:1px;stroke-linecap:butt;stroke-linejoin:miter;stroke-opacity:1"
       d="m -764,360.3622 0,40 460,0 0,-40 z"
       id="path3348"
       inkscape:connector-curvature="0" />
    <path
       style="fill:#000000;fill-rule:evenodd;stroke:#000000;stroke-width:0.68003267px;stroke-linecap:butt;stroke-linejoin:miter;stroke-opacity:1"
       d="m -331.61376,325.94647 0,27.20131 -13.60066,13.60065 0,-27.2013 z"
       id="path3354"
       inkscape:connector-curvature="0" />
    <path
       style="fill:#000000;fill-rule:evenodd;stroke:#000000;stroke-width:0.68003267px;stroke-linecap:butt;stroke-linejoin:miter;stroke-opacity:1"
       d="m -576.91348,182.24 13.13722,-3.52011 42.2413,157.64666 -13.13722,3.52011 z"
       id="path3338"
       inkscape:connector-curvature="0" />
    <path
       style="fill:#000000;fill-rule:evenodd;stroke:#000000;stroke-width:0.68003267px;stroke-linecap:butt;stroke-linejoin:miter;stroke-opacity:1"
       d="m -535.62357,339.54713 0,17.68085 c 60.52022,5.899 122.686,8.50686 190.40915,0 l 0,-17.68085 z"
       id="path3340"
       inkscape:connector-curvature="0"
       sodipodi:nodetypes="ccccc" />
    <path
       style="fill:#666666;fill-rule:evenodd;stroke:#000000;stroke-width:0.68003267px;stroke-linecap:butt;stroke-linejoin:miter;stroke-opacity:1"
       d="m -562.82488,180.33929 66.64321,0.0802 43.52209,145.52699 -66.6432,13.60066 z"
       id="path3350"
       inkscape:connector-curvature="0"
       sodipodi:nodetypes="ccccc" />
    <path
       style="fill:#b3b3b3;fill-rule:evenodd;stroke:#000000;stroke-width:0.68003267px;stroke-linecap:butt;stroke-linejoin:miter;stroke-opacity:1"
       d="m -522.02292,339.54713 68.00327,-13.60066 122.40589,0 -13.60066,13.60066 z"
       id="path3352"
       inkscape:connector-curvature="0" />
    <g
       transform="matrix(0.87181609,-0.03809688,0.16488522,1.1398257,0,0)"
       style="font-style:normal;font-weight:normal;font-size:13.57590485px;line-height:125%;font-family:sans-serif;text-align:center;letter-spacing:0px;word-spacing:0px;text-anchor:middle;fill:#ffffff;fill-opacity:1;stroke:none;stroke-width:1px;stroke-linecap:butt;stroke-linejoin:miter;stroke-opacity:1"
       id="text3356">
      <path
         d="m -653.40215,180.00072 -0.66289,0 -0.007,-1.99529 q -0.69603,-0.0133 -1.39206,-0.15909 -0.69603,-0.15246 -1.39869,-0.45076 l 0,-1.1932 q 0.67614,0.42425 1.36555,0.643 0.69603,0.21213 1.43183,0.21875 l 0,-3.02276 q -1.46498,-0.23863 -2.13449,-0.80872 -0.66289,-0.57008 -0.66289,-1.56441 0,-1.0805 0.72255,-1.70361 0.72254,-0.62312 2.07483,-0.71592 l 0,-1.55778 0.66289,0 0,1.53789 q 0.61648,0.0265 1.19319,0.13258 0.57671,0.0994 1.12691,0.27841 l 0,1.16005 q -0.5502,-0.27841 -1.13354,-0.43087 -0.57671,-0.15247 -1.18656,-0.17898 l 0,2.83052 q 1.50475,0.23201 2.21404,0.82861 0.70928,0.59659 0.70928,1.6307 0,1.12027 -0.75569,1.7699 -0.74906,0.643 -2.16763,0.74243 l 0,2.00855 z m -0.66289,-7.09951 0,-2.71783 q -0.76895,0.0862 -1.17331,0.4375 -0.40436,0.35133 -0.40436,0.93467 0,0.57008 0.37122,0.88827 0.37784,0.31818 1.20645,0.45739 z m 0.66289,1.27274 0,2.8703 q 0.84186,-0.11269 1.26611,-0.47728 0.43087,-0.36459 0.43087,-0.96119 0,-0.58333 -0.41099,-0.92804 -0.40436,-0.3447 -1.28599,-0.50379 z"
         style=""
         id="path3852" />
      <path
         d="m -647.90683,171.32354 0,-1.20645 8.4982,3.08242 0,1.10039 -8.4982,3.08242 0,-1.20645 6.82773,-2.41954 -6.82773,-2.43279 z"
         style=""
         id="path3854" />
      <path
         d="m -624.90469,168.87086 0,1.41195 q -0.67614,-0.62974 -1.44509,-0.9413 -0.76232,-0.31155 -1.62407,-0.31155 -1.69699,0 -2.59851,1.04073 -0.90153,1.0341 -0.90153,2.99624 0,1.95552 0.90153,2.99625 0.90152,1.0341 2.59851,1.0341 0.86175,0 1.62407,-0.31156 0.76895,-0.31155 1.44509,-0.9413 l 0,1.39869 q -0.70266,0.47728 -1.49149,0.71592 -0.7822,0.23864 -1.65721,0.23864 -2.24719,0 -3.53982,-1.37217 -1.29262,-1.37881 -1.29262,-3.75857 0,-2.38639 1.29262,-3.75856 1.29263,-1.3788 3.53982,-1.3788 0.88826,0 1.67047,0.23863 0.78883,0.23201 1.47823,0.70266 z"
         style=""
         id="path3856" />
      <path
         d="m -618.80613,169.0167 q -1.45835,0 -2.3201,1.08713 -0.85513,1.08713 -0.85513,2.9631 0,1.86934 0.85513,2.95647 0.86175,1.08714 2.3201,1.08714 1.45835,0 2.30684,-1.08714 0.85512,-1.08713 0.85512,-2.95647 0,-1.87597 -0.85512,-2.9631 -0.84849,-1.08713 -2.30684,-1.08713 z m 0,-1.08713 q 2.08146,0 3.32768,1.39868 1.24623,1.39207 1.24623,3.73868 0,2.33999 -1.24623,3.73868 -1.24622,1.39206 -3.32768,1.39206 -2.08809,0 -3.34095,-1.39206 -1.24622,-1.39206 -1.24622,-3.73868 0,-2.34661 1.24622,-3.73868 1.25286,-1.39868 3.34095,-1.39868 z"
         style=""
         id="path3858" />
      <path
         d="m -610.79847,169.20894 0,7.6961 1.61744,0 q 2.04832,0 2.99625,-0.92804 0.95455,-0.92804 0.95455,-2.92995 0,-1.98866 -0.95455,-2.91007 -0.94793,-0.92804 -2.99625,-0.92804 l -1.61744,0 z m -1.33903,-1.1004 2.75098,0 q 2.87692,0 4.22258,1.19983 1.34566,1.19319 1.34566,3.73868 0,2.55873 -1.35229,3.75856 -1.35229,1.19982 -4.21595,1.19982 l -2.75098,0 0,-9.89689 z"
         style=""
         id="path3860" />
      <path
         d="m -601.69042,168.10854 6.25765,0 0,1.12691 -4.91862,0 0,2.92996 4.71312,0 0,1.1269 -4.71312,0 0,3.58622 5.03794,0 0,1.1269 -6.37697,0 0,-9.89689 z"
         style=""
         id="path3862" />
    </g>
    <path
       style="fill:#000000;fill-rule:evenodd;stroke:#000000;stroke-width:1.46737587px;stroke-linecap:butt;stroke-linejoin:miter;stroke-opacity:1"
       d="m -227.37593,178.16505 c -20.26868,23.36997 -26.92776,57.20233 -29.34752,88.04255 -4.65452,59.32234 29.34752,176.08511 29.34752,176.08511 l 117.39007,0 c 0,0 19.843704,-139.89332 0,-205.43263 -10.22107,-33.7579 -24.60531,-78.98953 -58.69504,-88.04255 -21.14155,-5.61444 -44.36292,12.82246 -58.69503,29.34752 z"
       id="path3501"
       inkscape:connector-curvature="0"
       sodipodi:nodetypes="ssccsss" />
    <path
       style="fill:#000000;fill-rule:evenodd;stroke:#000000;stroke-width:1.46737587px;stroke-linecap:butt;stroke-linejoin:miter;stroke-opacity:1"
       d="m -139.33338,178.16505 0,146.73759 -211.30213,-14.67376 -23.47801,-35.21702 146.73759,-8.80426 29.34751,-88.04255 z"
       id="path3503"
       inkscape:connector-curvature="0"
       sodipodi:nodetypes="ccccccc" />
    <path
       style="fill:#000000;fill-rule:evenodd;stroke:#000000;stroke-width:1.46737587px;stroke-linecap:butt;stroke-linejoin:miter;stroke-opacity:1"
       d="m -109.98586,442.29271 c 0,0 7.10741,49.13084 0,79.2383 -3.17853,13.46446 -21.38247,38.15177 -35.21702,38.15177 l -126.19433,0 82.02128,144.04256 -29.34752,29.34751 c 0,0 -128.52587,-120.76641 -137.39007,-175.39007 -3.50389,-21.59189 36.96654,-52.96653 52.43404,-68.43404 30.935,-30.935 76.30355,-46.95603 76.30355,-46.95603 z"
       id="path3505"
       inkscape:connector-curvature="0"
       sodipodi:nodetypes="csscccsscc" />
    <circle
       style="opacity:1;fill:#000000;fill-opacity:1;stroke:none;stroke-width:3;stroke-linecap:round;stroke-linejoin:bevel;stroke-miterlimit:4;stroke-dasharray:none;stroke-dashoffset:0;stroke-opacity:1"
       id="path3507"
       cx="-247.91919"
       cy="93.05722"
       r="58.695038" />
    <path
       style="fill:#000000;fill-rule:evenodd;stroke:#000000;stroke-width:1.46737587px;stroke-linecap:butt;stroke-linejoin:miter;stroke-opacity:1"
       d="m -347.41849,530.98775 -110.32482,172.99858 c 2.93475,11.73901 43.47801,16.02128 43.47801,16.02128 l 92.97731,-119.2383 z"
       id="path3509"
       inkscape:connector-curvature="0"
       sodipodi:nodetypes="ccccc" />
    <path
       style="fill:#554400;fill-rule:evenodd;stroke:#000000;stroke-width:1px;stroke-linecap:butt;stroke-linejoin:miter;stroke-opacity:1"
       d="m -740,392.3622 0,380 26,0 14,-380 z"
       id="path3511"
       inkscape:connector-curvature="0"
       sodipodi:nodetypes="ccccc" />
    <path
       sodipodi:nodetypes="ccccc"
       inkscape:connector-curvature="0"
       id="path3513"
       d="m -404,390.3622 0,380 26,0 14,-380 z"
       style="fill:#554400;fill-rule:evenodd;stroke:#000000;stroke-width:1px;stroke-linecap:butt;stroke-linejoin:miter;stroke-opacity:1" />
    <path
       style="fill:#554400;fill-rule:evenodd;stroke:#000000;stroke-width:1.05892324px;stroke-linecap:butt;stroke-linejoin:miter;stroke-opacity:1"
       d="m -259.97054,552.39166 0,19.94108 179.941078,0 0,-19.94108 z"
       id="path3522"
       inkscape:connector-curvature="0" />
    <path
       style="fill:#554400;fill-rule:evenodd;stroke:#000000;stroke-width:1px;stroke-linecap:butt;stroke-linejoin:miter;stroke-opacity:1"
       d="m -100,552.3622 40,-260 20,0 -40,260 z"
       id="path3524"
       inkscape:connector-curvature="0" />
    <path
       sodipodi:nodetypes="ccccc"
       inkscape:connector-curvature="0"
       id="path3526"
       d="m -258.25459,572.10761 0,186.50918 12.76115,0 6.87139,-186.50918 z"
       style="fill:#554400;fill-rule:evenodd;stroke:#000000;stroke-width:0.49081364px;stroke-linecap:butt;stroke-linejoin:miter;stroke-opacity:1" />
    <path
       style="fill:#554400;fill-rule:evenodd;stroke:#000000;stroke-width:0.49081364px;stroke-linecap:butt;stroke-linejoin:miter;stroke-opacity:1"
       d="m -80.612842,572.10761 0,186.50918 -12.76115,0 -6.871388,-186.50918 z"
       id="path3528"
       inkscape:connector-curvature="0"
       sodipodi:nodetypes="ccccc" />
    <path
       sodipodi:nodetypes="ccccccc"
       inkscape:connector-curvature="0"
       id="path3537"
       d="m -136.34726,219.12446 -17.97848,123.73763 -196.30434,-84.86278 -13.56318,-40.09358 140.01634,45.47422 51.13461,-77.44688 z"
       style="fill:#000000;fill-rule:evenodd;stroke:#000000;stroke-width:1.46737587px;stroke-linecap:butt;stroke-linejoin:miter;stroke-opacity:1" />
  </g>
</svg>
