<?xml version="1.0" encoding="UTF-8"?>
<!DOCTYPE svg PUBLIC "-//W3C//DTD SVG 1.1//EN" "http://www.w3.org/Graphics/SVG/1.1/DTD/svg11.dtd">
<svg version="1.1" xmlns="http://www.w3.org/2000/svg" xmlns:xlink="http://www.w3.org/1999/xlink" x="0" y="0" width="530" height="479" viewBox="0, 0, 530, 479">
  <defs>
    <linearGradient id="Gradient_1" gradientUnits="userSpaceOnUse" x1="325.302" y1="361.424" x2="265.513" y2="346.712">
      <stop offset="0" stop-color="#FADCB8"/>
      <stop offset="0.994" stop-color="#F4BE8C"/>
      <stop offset="1" stop-color="#F4BE8C"/>
    </linearGradient>
    <linearGradient id="Gradient_2" gradientUnits="userSpaceOnUse" x1="234.315" y1="375.769" x2="223.919" y2="310.919">
      <stop offset="0" stop-color="#1F4F5E"/>
      <stop offset="1" stop-color="#498295"/>
    </linearGradient>
    <linearGradient id="Gradient_3" gradientUnits="userSpaceOnUse" x1="143.228" y1="421.041" x2="143.228" y2="296.635">
      <stop offset="0" stop-color="#346271"/>
      <stop offset="1" stop-color="#498295"/>
    </linearGradient>
    <linearGradient id="Gradient_4" gradientUnits="userSpaceOnUse" x1="142.603" y1="375.672" x2="126.354" y2="288.627">
      <stop offset="0" stop-color="#2D525E"/>
      <stop offset="1" stop-color="#498295"/>
    </linearGradient>
    <linearGradient id="Gradient_5" gradientUnits="userSpaceOnUse" x1="178.413" y1="371.591" x2="162.74" y2="287.63">
      <stop offset="0" stop-color="#233F49"/>
      <stop offset="1" stop-color="#498295"/>
    </linearGradient>
    <linearGradient id="Gradient_6" gradientUnits="userSpaceOnUse" x1="143.929" y1="299.619" x2="143.017" y2="270.433">
      <stop offset="0" stop-color="#FADCB8"/>
      <stop offset="0.994" stop-color="#F4BE8C"/>
      <stop offset="1" stop-color="#F4BE8C"/>
    </linearGradient>
    <linearGradient id="Gradient_7" gradientUnits="userSpaceOnUse" x1="40.333" y1="210.584" x2="81.714" y2="210.274">
      <stop offset="0" stop-color="#FADCB8"/>
      <stop offset="0.994" stop-color="#F4BE8C"/>
      <stop offset="1" stop-color="#F4BE8C"/>
    </linearGradient>
    <linearGradient id="Gradient_8" gradientUnits="userSpaceOnUse" x1="148.417" y1="276.229" x2="146.977" y2="84.195">
      <stop offset="0" stop-color="#FADCB8"/>
      <stop offset="0.994" stop-color="#F4BE8C"/>
      <stop offset="1" stop-color="#F4BE8C"/>
    </linearGradient>
    <radialGradient id="Gradient_9" gradientUnits="userSpaceOnUse" cx="99.567" cy="212.578" r="21.19" gradientTransform="matrix(1, 0, 0, 1, 0, 0.036)">
      <stop offset="0" stop-color="#FFBAB8"/>
      <stop offset="1" stop-color="#FFBAB8" stop-opacity="0"/>
    </radialGradient>
    <radialGradient id="Gradient_10" gradientUnits="userSpaceOnUse" cx="211.749" cy="211.402" r="18.362" gradientTransform="matrix(1, 0, 0, 1.154, 0, -32.462)">
      <stop offset="0" stop-color="#FFBAB8"/>
      <stop offset="1" stop-color="#FFBAB8" stop-opacity="0"/>
    </radialGradient>
    <linearGradient id="Gradient_11" gradientUnits="userSpaceOnUse" x1="254.525" y1="400.843" x2="197.805" y2="376.851">
      <stop offset="0" stop-color="#FADCB8"/>
      <stop offset="0.994" stop-color="#F4BE8C"/>
      <stop offset="1" stop-color="#F4BE8C"/>
    </linearGradient>
    <linearGradient id="Gradient_12" gradientUnits="userSpaceOnUse" x1="150.313" y1="399.97" x2="150.313" y2="325.397">
      <stop offset="0" stop-color="#1F4F5E"/>
      <stop offset="1" stop-color="#498295"/>
    </linearGradient>
  </defs>
  <g id="Layer_1">
    <path d="M278.057,342.858 C278.057,342.858 293.019,332.423 306.831,338.925 C320.658,345.456 303.239,344.104 303.239,344.104 C303.239,344.104 333.869,351.259 322.907,358.488 C322.907,358.488 328.659,362.526 321.2,365.205 C321.2,365.205 325.653,368.403 317.519,370.994 C317.519,370.994 322.854,378.156 313.904,376.159 C305.05,374.192 293.954,363.64 277.448,365.599 C264.192,367.165 266.427,363.921 266.427,363.921 L268.542,345.233 C268.542,345.233 273.276,346.554 278.057,342.858 z" fill="url(#Gradient_1)" id="path5004"/>
    <path d="M281.5,363.987 C290.985,363.987 298.712,367.847 304.924,370.957 C308.427,372.701 311.447,374.216 314.201,374.823 C316.405,375.329 317.675,374.979 317.704,374.921 C317.904,374.513 317.259,372.946 316.42,371.811 L315.27,370.274 L317.096,369.695 C320.755,368.522 321.021,367.469 321.044,367.351 C321.104,366.956 320.562,366.43 320.405,366.318 L318.283,364.797 L320.732,363.913 C322.469,363.298 323.553,362.526 323.649,361.843 C323.761,361.071 322.647,359.979 322.12,359.602 L320.495,358.451 L322.157,357.345 C323.033,356.774 324.05,355.897 323.894,355.03 C323.285,351.653 311.276,347.386 302.92,345.44 L303.343,342.747 C303.357,342.747 304.79,342.858 306.475,342.858 C308.954,342.858 310.111,342.62 310.631,342.464 C310.148,342.294 309.05,341.485 306.245,340.156 C303.425,338.827 300.314,338.152 297.005,338.152 C287.326,338.152 278.925,343.927 278.843,343.978 C275.808,346.323 272.713,346.829 270.679,346.829 C270.33,346.829 270.026,346.821 269.736,346.792 L267.784,364.085 C267.436,364.122 269.447,365.175 277.292,364.24 C278.725,364.061 280.135,363.987 281.5,363.987 z M316.576,377.874 C315.745,377.874 314.772,377.755 313.607,377.495 C310.534,376.813 307.21,375.15 303.706,373.399 C296.552,369.829 288.299,365.702 277.604,366.949 C269.002,367.974 266.196,367.394 265.172,365.435 L264.786,364.708 L265.306,363.149 L267.361,343.496 L268.905,343.911 C268.92,343.904 273.076,344.966 277.226,341.774 C277.641,341.477 286.443,335.421 297.005,335.421 C300.723,335.421 304.226,336.186 307.417,337.692 C312.175,339.934 313.882,341.492 313.481,343.236 C313.296,344.06 312.709,344.646 311.604,345.024 C318.053,347.126 325.854,350.466 326.581,354.548 C326.841,355.995 326.313,357.338 325.015,358.569 C325.779,359.446 326.565,360.722 326.358,362.206 C326.173,363.609 325.178,364.797 323.396,365.731 C323.687,366.296 323.872,366.986 323.745,367.772 C323.493,369.361 322.12,370.653 319.567,371.706 C320.235,372.968 320.851,374.742 320.139,376.152 C319.745,376.938 318.803,377.874 316.576,377.874" fill="#F3B981" id="path5006"/>
    <path d="M317.519,371.989 C317.311,371.989 317.096,371.922 316.925,371.78 C316.858,371.736 310.668,367.112 306.186,365.843 C305.658,365.694 305.354,365.153 305.503,364.618 C305.651,364.092 306.2,363.795 306.728,363.936 C311.559,365.31 317.853,369.999 318.112,370.208 C318.55,370.526 318.64,371.149 318.306,371.588 C318.112,371.848 317.815,371.989 317.519,371.989" fill="#F3B981" id="path5008"/>
    <path d="M321.2,366.2 C320.94,366.2 320.673,366.096 320.479,365.88 C320.428,365.836 315.789,360.997 309.303,360.61 C308.761,360.573 308.338,360.114 308.367,359.564 C308.412,359.015 308.998,358.622 309.421,358.63 C316.717,359.052 321.712,364.308 321.92,364.53 C322.291,364.931 322.276,365.546 321.875,365.925 C321.689,366.102 321.444,366.2 321.2,366.2" fill="#F3B981" id="path5010"/>
    <path d="M322.907,359.483 C322.603,359.483 322.291,359.335 322.098,359.075 C322.061,359.015 318.261,353.887 311.255,353.887 C311.202,353.887 311.144,353.887 311.076,353.887 L311.069,353.887 C310.534,353.887 310.089,353.448 310.074,352.907 C310.067,352.291 310.564,351.897 311.262,351.897 C319.308,351.897 323.538,357.665 323.716,357.909 C324.027,358.354 323.924,358.971 323.479,359.298 C323.315,359.416 323.107,359.483 322.907,359.483" fill="#F3B981" id="path5012"/>
    <path d="M196.268,309.652 C196.268,309.652 216.849,335.666 219.201,340.274 C234,344.943 281.708,335.882 281.708,335.882 C281.708,335.882 290.703,356.915 282.644,368.032 C282.644,368.032 206.272,387.864 184.155,366.979 C171.946,355.46 174.002,335.421 170.432,321.942 C166.862,308.465 173.823,289.747 196.268,309.652 z" fill="url(#Gradient_2)" id="path5014"/>
    <path d="M154.126,286.11 C159.967,288.989 178.893,294.363 186.916,302.126 C194.932,309.868 207.994,393.341 207.994,405.698 L91.619,421.507 C88.234,404.86 66.771,322.091 87.106,306.269 C93.897,300.983 111.013,286.54 125.678,285.249 C134.05,284.499 147.224,282.711 154.126,286.11 z" fill="url(#Gradient_3)" id="path5016"/>
    <path d="M61.115,420.38 L61.115,435.075 L309.674,476.874 L524.344,421.515 L524.344,403.435 L61.115,420.38" fill="#A29983" id="path5018"/>
    <path d="M61.115,420.38 L333.409,371.811 L527.729,404.571 L308.546,458.802 L61.115,420.38" fill="#BBAE92" id="path5020"/>
    <path d="M283.764,306.201 L420.178,291.476 L439.326,297.369 L298.489,317.979 L283.764,306.201" fill="#E4E4E3" id="path5022"/>
    <path d="M295.542,313.073 L439.326,297.369 L428.038,413.187 L283.764,432.811 L295.542,313.073" fill="#B4B5B4" id="path5024"/>
    <path d="M169.912,407.294 L285.73,389.63 L283.764,423.979 L171.879,416.126 L169.912,407.294" fill="#B4B5B4" id="path5026"/>
    <path d="M170.885,422.019 C170.885,422.019 166.966,418.093 169.912,407.294 L276.898,417.114 L283.764,306.201 L297.012,312.584 L290.629,422.019 L282.784,432.811 L170.885,422.019" fill="#CBCCCB" id="path5028"/>
    <path d="M290.14,423.979 C290.14,428.588 286.421,432.321 281.812,432.321 C277.195,432.321 273.455,428.588 273.455,423.979 C273.455,419.362 277.195,415.644 281.812,415.644 C286.421,415.644 290.14,419.362 290.14,423.979" fill="#8A8B8A" id="path5030"/>
    <path d="M426.026,316.369 C426.338,319.864 423.748,322.968 420.237,323.271 L407.538,324.415 C404.021,324.719 400.918,322.128 400.606,318.626 C400.295,315.107 402.878,312.02 406.396,311.7 L419.095,310.573 C422.612,310.253 425.707,312.851 426.026,316.369" fill="#CBCCCB" id="path5032"/>
    <path d="M121.247,310.87 C121.247,310.87 141.071,342.888 164.917,365.999 C164.917,365.999 167.055,344.231 173.957,306.417 L148.448,300.227 L121.247,310.87" fill="#FFFFFE" id="path5034"/>
    <path d="M146.341,319.071 L149.673,354.561 C151.009,362.823 163.232,369.398 163.232,369.398 L169.593,354.993 L157.08,316.852 L146.341,319.071" fill="#881C26" id="path5036"/>
    <path d="M137.709,309.177 L146.341,319.071 L157.644,317.253 L162.224,304.093 L146.972,300.093 L137.709,309.177" fill="#AB2430" id="path5038"/>
    <path d="M117.796,288.655 C117.796,288.655 117.269,307.47 130.599,319.405 C130.599,319.405 137.382,306.171 147.283,300.635 C147.283,300.635 162.03,300.486 170.009,318.144 C170.009,318.144 179.657,316.858 173.423,291.038 L162.521,282.185 L127.927,276.12 L117.796,288.655" fill="#E4E4E3" id="path5040"/>
    <path d="M121.87,281.962 C121.87,281.962 151.685,351.208 164.368,372.968 C164.368,372.968 132.432,352.78 123.132,339.866 L127.823,323.472 L108.526,312.429 C108.526,312.429 108.904,295.21 121.87,281.962 z" fill="url(#Gradient_4)" id="path5042"/>
    <path d="M160.264,280.855 C160.264,280.855 171.842,339.073 159.841,376.368 C159.841,376.368 179.82,347.919 183.843,332.519 L173.542,318.923 L184.415,299.484 C184.415,299.484 173.979,290.393 160.264,280.855 z" fill="url(#Gradient_5)" id="path5044"/>
    <path d="M235.484,199.616 C235.484,199.616 275.682,132.239 253.95,77.927 C221.776,-2.555 153.955,2.476 126.725,2.476 C98.625,1.659 81.6,9.809 74.794,19.591 C39.881,20.408 14.847,63.335 12.769,68.151 C-13.118,127.601 13.667,201.204 39.095,213.063 C39.095,213.063 86.245,206.154 135.237,203.749 C184.229,201.337 231.491,209.717 235.484,199.616" fill="#2D2118" id="path5046"/>
    <path d="M126.962,280.144 C126.962,287.505 139.067,300.538 143.319,300.538 C147.58,300.538 159.678,287.505 159.678,280.144 C159.678,272.766 149.747,266.784 143.319,266.784 C136.893,266.784 126.962,272.766 126.962,280.144 z" fill="url(#Gradient_6)" id="path5048"/>
    <path d="M81.718,210.8 C81.792,221.548 73.19,229.206 62.651,230.401 C48.787,231.989 43.273,221.332 40.831,210.867 C37.766,197.835 48.447,186.665 62.362,191.489 C72.382,194.97 81.644,200.046 81.718,210.8 z" fill="url(#Gradient_7)" id="path5050"/>
    <path d="M240.101,166.255 C240.249,186.011 231.818,218.72 226.341,232.397 C213.976,263.266 178.581,278.02 148.448,278.243 C116.823,278.474 79.477,263.296 69.302,233.993 C64.521,220.175 55.244,187.726 55.096,167.657 C54.784,125.931 86.743,78.974 146.935,78.505 C207.126,78.053 239.774,122.591 240.101,166.255 z" fill="url(#Gradient_8)" id="path5052"/>
    <path d="M120.757,212.419 C120.839,224.122 111.413,233.683 99.724,233.764 C88.012,233.845 78.46,224.435 78.378,212.737 C78.282,201.033 87.7,191.481 99.397,191.392 C111.094,191.304 120.653,200.714 120.757,212.419 z" fill="url(#Gradient_9)" id="path5054"/>
    <path d="M193.388,211.542 C193.477,223.247 201.782,232.657 211.913,232.583 C222.051,232.509 230.2,222.965 230.111,211.269 C230.029,199.556 221.725,190.153 211.586,190.22 C201.448,190.302 193.299,199.846 193.388,211.542 z" fill="url(#Gradient_10)" id="path5056"/>
    <path d="M189.84,188.349 C189.899,195.652 195.622,201.53 202.643,201.478 C209.649,201.427 215.29,195.46 215.216,188.156 C215.171,180.852 209.448,174.976 202.428,175.019 C195.421,175.087 189.788,181.038 189.84,188.349" fill="#2D2118" id="path5058"/>
    <path d="M103.888,189.003 C103.954,196.306 109.669,202.19 116.675,202.124 C123.674,202.079 129.322,196.104 129.271,188.794 C129.203,181.491 123.481,175.613 116.475,175.681 C109.461,175.725 103.835,181.685 103.888,189.003" fill="#2D2118" id="path5060"/>
    <path d="M158.416,221.169 C162.824,221.116 165.89,219.966 167.545,217.732 C171.753,212.069 164.769,201.976 163.96,200.841 C163.478,200.173 162.468,199.964 161.674,200.388 C160.88,200.78 160.635,201.657 161.11,202.332 C163.01,204.997 167.352,212.679 164.739,216.211 C163.455,217.933 160.472,218.593 155.818,218.2 C154.928,218.126 154.089,218.69 153.992,219.477 C153.903,220.249 154.557,220.954 155.477,221.028 C156.516,221.116 157.511,221.169 158.416,221.169" fill="#917E70" id="path5062"/>
    <path d="M130.732,148.932 C130.732,148.932 132.825,143.981 129.648,141.829 C126.479,139.685 106.337,136.648 98.396,139.513 C97.066,139.995 129.396,148.976 130.732,148.932" fill="#4F433B" id="path5064"/>
    <path d="M186.886,148.509 C186.886,148.509 184.712,143.588 187.858,141.384 C190.998,139.202 211.089,135.862 219.082,138.608 C220.411,139.067 188.222,148.517 186.886,148.509" fill="#4F433B" id="path5066"/>
    <path d="M129.003,233.133 C129.003,233.133 145.042,241.823 172.763,238.217 C172.763,238.217 170.499,267.533 150.423,264.067 C130.361,260.594 129.003,233.133 129.003,233.133" fill="#EB907B" id="path5068"/>
    <path d="M55.912,144.404 C55.386,159.396 59.897,178.181 67.921,190.747 C71.238,175.583 69.65,162.804 76.345,148.753 C82.698,135.417 89.11,122.064 95.256,108.683 C110.122,120.766 124.765,144.233 148.174,139.84 C140.878,132.894 137.472,121.879 131.015,115.236 C146.808,128.38 162.616,135.995 184.036,134.392 C175.138,128.218 166.995,116.022 161.444,108.192 C173.104,114.561 187.235,119.46 200.275,122.554 C199.259,117.878 196.445,112.958 194.063,108.712 C221.494,123.052 245.267,163.731 234.022,195.065 C256.934,165.282 258.018,124.099 241.704,90.083 C233.674,73.354 221.843,52.329 204.751,43.578 C186.322,34.138 163.44,29.878 142.822,29.239 C114.522,28.363 87.151,44.677 72.471,68.56 C57.968,92.198 60.328,119.667 54.821,145.487" fill="#2D2118" id="path5070"/>
    <path d="M210.807,375.024 C210.807,375.024 227.239,367.091 239.849,375.707 C252.466,384.331 235.478,380.249 235.478,380.249 C235.478,380.249 264.601,392.153 252.629,397.564 C252.629,397.564 257.661,402.463 249.876,403.925 C249.876,403.925 253.765,407.784 245.318,409.061 C245.318,409.061 249.46,416.973 240.939,413.589 C232.509,410.249 223.209,398.077 206.628,397.386 C193.276,396.845 195.993,393.995 195.993,393.995 L201.032,375.862 C201.032,375.862 205.5,377.934 210.807,375.024 z" fill="url(#Gradient_11)" id="path5072"/>
    <path d="M201.968,377.6 L197.307,394.351 C197.106,394.395 198.183,395.672 206.681,396.028 C218.214,396.495 226.349,402.337 232.887,407.027 C236.071,409.313 238.824,411.272 241.444,412.311 C244.161,413.38 244.836,413.039 244.881,412.958 C245.133,412.534 244.755,410.924 244.108,409.692 L243.226,407.992 L245.118,407.702 C248.911,407.139 249.349,406.13 249.386,406.019 C249.505,405.647 249.052,405.03 248.911,404.905 L247.063,403.063 L249.623,402.581 C251.435,402.24 252.629,401.653 252.822,401.001 C253.045,400.273 252.184,399.042 251.679,398.552 L250.239,397.149 L252.065,396.325 C253.03,395.888 254.158,395.183 254.15,394.299 C254.084,390.862 242.892,384.762 234.958,381.511 L235.796,378.929 C235.849,378.936 241.601,380.019 243.025,379.796 C242.58,379.552 241.615,378.571 239.077,376.835 C235.403,374.327 231.002,373.05 225.999,373.05 C218.14,373.05 211.468,376.22 211.4,376.257 C209.382,377.37 207.178,377.94 204.921,377.94 C203.733,377.94 202.725,377.785 201.968,377.6 z M244.354,415.792 C243.308,415.792 242.03,415.488 240.442,414.857 C237.503,413.7 234.482,411.54 231.291,409.247 C224.723,404.541 217.286,399.197 206.569,398.752 C196.958,398.358 195.103,396.77 194.561,395.419 L194.233,394.596 L194.998,393.044 L200.142,373.963 L201.597,374.624 C201.611,374.624 202.933,375.202 204.921,375.202 C206.71,375.202 208.469,374.742 210.146,373.821 C210.51,373.644 217.486,370.326 225.999,370.326 C231.573,370.326 236.486,371.759 240.62,374.579 C244.836,377.474 246.291,379.232 245.786,380.865 C245.46,381.904 244.487,382.312 243.597,382.476 C249.631,385.571 256.808,390.105 256.882,394.255 C256.904,395.716 256.177,396.971 254.7,397.979 C255.323,398.968 255.88,400.348 255.442,401.788 C255.034,403.138 253.861,404.147 251.961,404.801 C252.154,405.401 252.229,406.106 251.983,406.872 C251.479,408.394 249.92,409.446 247.233,410.085 C247.671,411.376 247.99,413.113 247.226,414.375 C246.833,415.028 246.017,415.792 244.354,415.792" fill="#F3B981" id="path5074"/>
    <path d="M245.318,410.056 C245.059,410.056 244.799,409.952 244.606,409.743 C244.554,409.692 239.181,404.14 234.95,402.173 C234.445,401.943 234.237,401.356 234.468,400.86 C234.698,400.362 235.292,400.14 235.781,400.378 C240.346,402.5 245.801,408.134 246.038,408.37 C246.417,408.765 246.409,409.395 246.009,409.773 C245.815,409.959 245.571,410.056 245.318,410.056" fill="#F3B981" id="path5076"/>
    <path d="M249.876,404.919 C249.557,404.919 249.245,404.764 249.06,404.489 C249.015,404.43 245.2,398.923 238.854,397.49 C238.319,397.372 237.979,396.845 238.104,396.31 C238.224,395.776 238.765,395.435 239.284,395.561 C246.425,397.156 250.521,403.124 250.699,403.376 C251.011,403.829 250.885,404.436 250.433,404.741 C250.269,404.868 250.068,404.919 249.876,404.919" fill="#F3B981" id="path5078"/>
    <path d="M252.629,398.56 C252.272,398.56 251.917,398.351 251.738,398.01 C251.627,397.765 248.732,392.198 241.667,391.144 C241.125,391.063 240.754,390.558 240.828,390.017 C240.917,389.475 241.348,389.081 241.964,389.178 C250.076,390.395 253.386,396.852 253.52,397.119 C253.765,397.608 253.564,398.202 253.074,398.448 C252.94,398.522 252.777,398.56 252.629,398.56" fill="#F3B981" id="path5080"/>
    <path d="M108.733,311.849 C108.733,311.849 139.237,356.247 153.116,363.171 C166.98,370.103 215.52,368.724 215.52,368.724 C215.52,368.724 221.071,390.922 211.378,400.614 C211.378,400.614 135.066,406.167 114.278,383.976 C93.467,361.784 85.154,350.695 83.767,336.816 C82.364,322.944 86.542,293.813 108.733,311.849 z" fill="url(#Gradient_12)" id="path5082"/>
  </g>
</svg>
